<svg width="33" height="36" viewBox="0 0 33 36" fill="none" xmlns="http://www.w3.org/2000/svg">
<path d="M17.904 35.144C15.76 35.144 13.984 34.728 12.576 33.896C11.2 33.064 10.064 31.864 9.168 30.296C8.304 28.728 7.52 26.824 6.816 24.584L1.44 7.352C0.928 5.752 0.96 4.36 1.536 3.176C2.144 1.96 3.216 1.128 4.752 0.679998C6.16 0.263998 7.44 0.359998 8.592 0.967998C9.744 1.544 10.528 2.536 10.944 3.944L16.176 20.552C16.72 22.344 17.408 23.544 18.24 24.152C19.104 24.728 20.032 24.856 21.024 24.536C22.048 24.248 22.704 23.672 22.992 22.808C23.28 21.912 23.2 20.568 22.752 18.776C22.016 15.576 21.52 13.064 21.264 11.24C21.008 9.416 20.88 7.976 20.88 6.92C20.88 5.128 21.36 3.592 22.32 2.312C23.312 0.999997 24.832 0.343997 26.88 0.343997C28.896 0.343997 30.352 0.999997 31.248 2.312C32.176 3.592 32.64 5.128 32.64 6.92C32.64 7.976 32.496 9.064 32.208 10.184C31.92 11.304 31.584 12.456 31.2 13.64L26.928 26.552C26.352 28.28 25.712 29.8 25.008 31.112C24.336 32.392 23.44 33.384 22.32 34.088C21.232 34.792 19.76 35.144 17.904 35.144Z" fill="black"/>
</svg>
